# xmcd
#
# Track frame offsets:
#	150
#	17597
#	36285
#	49945
#	63988
#	83755
#	102783
#	120015
#	136627
#	157322
#	174682
#	190425
#	210852
#	229834
#	247128
#
# Disc length: 3563 seconds
#
# Revision: 0
# Processed by: cddbd v1.5.2PL0 Copyright (c) Steve Scherf et al.
# Submitted via: audiograbber 1.83.01
#
DISCID=c30de90f
DTITLE=Sound Choice - Country Hits - Vol. 153 SC8769
DYEAR=1900
DGENRE=Karaoke
TTITLE0=Lee Ann Womack - Something Worth Leaving Behind
TTITLE1=Kenny Chesney - Live Those Songs
TTITLE2=Emerson Drive - Fall Into Me
TTITLE3=Hometown News - Minivan
TTITLE4=Tim McGraw - Unbroken
TTITLE5=The Clark Family Experiece - Going Away
TTITLE6=Hank Williams Jr. and Kid Rock - The F Word (Live ACM Version)
TTITLE7=Toby Keith - Courtesy Of The Red, White, and Blue
TTITLE8=Alan Jackson - Work In Progress
TTITLE9=The Dixie Chicks - Long Time Gone
TTITLE10=Hank Williams Jr. - Big Top Women
TTITLE11=Montgomery Gentry - My Town
TTITLE12=Alabama - I'm In The Mood
TTITLE13=Marcel - Country Rock Star
TTITLE14=Cledus T. Judd - It's A Great Day To Be A Guy
EXTD=
EXTT0=
EXTT1=
EXTT2=
EXTT3=
EXTT4=
EXTT5=
EXTT6=
EXTT7=
EXTT8=
EXTT9=
EXTT10=
EXTT11=
EXTT12=
EXTT13=
EXTT14=
PLAYORDER=
